<?xml version="1.0" standalone="no"?>
<!DOCTYPE svg PUBLIC "-//W3C//DTD SVG 20010904//EN"
 "http://www.w3.org/TR/2001/REC-SVG-20010904/DTD/svg10.dtd">
<svg version="1.0" xmlns="http://www.w3.org/2000/svg"
 width="689.000000pt" height="689.000000pt" viewBox="0 0 689.000000 689.000000"
 preserveAspectRatio="xMidYMid meet">
<metadata>
Created by potrace 1.14, written by Peter Selinger 2001-2017
</metadata>
<g transform="translate(0.000000,689.000000) scale(0.100000,-0.100000)"
fill="#000000" stroke="none">
<path d="M3238 6875 c-2 -1 -43 -6 -92 -10 -50 -4 -99 -9 -109 -11 -11 -2 -45
-6 -76 -10 -45 -5 -217 -38 -358 -69 -87 -19 -401 -130 -543 -192 -65 -29
-285 -140 -338 -171 -29 -18 -55 -32 -57 -32 -2 0 -26 -14 -54 -31 -49 -31
-64 -49 -40 -49 21 0 416 -197 550 -275 283 -164 562 -366 813 -589 77 -68
108 -75 139 -30 31 45 301 310 418 410 124 107 301 241 449 341 197 133 544
320 692 374 71 26 91 55 68 97 -12 20 -36 32 -120 59 -106 33 -274 80 -320 89
-14 3 -43 10 -65 16 -22 5 -49 12 -60 13 -11 2 -47 8 -80 14 -55 10 -89 16
-155 26 -23 4 -98 12 -180 21 -43 5 -478 13 -482 9z m242 -467 c0 -3 -26 -28
-57 -55 -32 -26 -63 -53 -69 -58 -13 -12 -86 -76 -234 -204 -62 -54 -114 -91
-127 -91 -16 0 -353 232 -407 281 -14 12 238 86 359 104 22 3 51 8 65 10 14 2
52 7 84 9 32 3 60 7 62 8 6 6 324 3 324 -4z"/>
<path d="M4977 6367 c-184 -78 -445 -214 -637 -330 -474 -289 -876 -635 -1239
-1070 -79 -95 -105 -113 -146 -103 -16 4 -94 74 -193 174 -162 161 -332 314
-477 428 -255 199 -579 409 -833 540 -188 97 -219 87 -436 -136 -146 -151
-254 -280 -357 -425 -35 -49 -66 -92 -69 -95 -4 -3 -39 -58 -79 -122 -84 -136
-96 -180 -59 -215 13 -12 89 -49 168 -82 302 -123 517 -237 770 -406 561 -375
982 -858 1299 -1492 118 -236 155 -329 241 -613 37 -124 73 -238 80 -255 l12
-30 22 26 c14 16 28 52 35 90 53 277 182 641 342 964 87 176 109 219 158 300
480 795 1128 1399 1916 1784 181 89 236 113 415 181 176 67 200 81 200 115 0
38 -192 249 -370 406 -177 155 -473 371 -544 396 -59 21 -119 13 -219 -30z
m204 -500 c73 -50 153 -127 143 -136 -5 -5 -45 -28 -89 -51 -363 -194 -658
-391 -948 -633 -135 -112 -430 -399 -519 -505 -32 -37 -68 -78 -80 -92 -178
-195 -524 -713 -649 -972 -13 -27 -25 -48 -28 -48 -4 0 -47 65 -98 143 -218
338 -382 546 -613 778 -91 91 -188 185 -215 210 -28 24 -66 58 -86 75 -174
153 -508 378 -754 509 -89 46 -145 93 -145 118 0 25 59 102 143 186 62 61 91
84 110 84 38 0 421 -244 607 -387 345 -264 645 -568 914 -924 84 -112 112
-133 149 -113 13 7 67 77 121 157 199 293 351 479 576 705 181 182 230 225
405 364 144 114 328 241 480 332 118 71 365 202 415 220 61 22 110 16 161 -20z"/>
<path d="M6149 5265 c-283 -106 -548 -234 -769 -373 -427 -269 -765 -552
-1075 -902 -527 -595 -889 -1379 -1029 -2232 -3 -15 -10 -72 -16 -125 -6 -54
-13 -115 -15 -137 -12 -97 -18 -412 -18 -884 0 -498 0 -513 20 -540 11 -15 32
-33 47 -40 33 -17 254 -23 309 -9 74 19 71 -6 73 611 1 303 5 580 8 616 20
238 26 298 36 360 6 30 12 78 15 105 4 28 10 69 16 93 5 23 12 59 15 80 10 72
77 329 120 465 270 845 796 1527 1584 2051 226 151 514 314 582 330 16 4 42 0
62 -8 28 -12 41 -28 69 -88 87 -183 198 -566 222 -767 4 -30 8 -63 11 -74 24
-129 24 -598 -1 -711 -3 -12 -7 -39 -10 -61 -12 -101 -69 -347 -110 -470 -234
-710 -652 -1250 -1262 -1629 -187 -116 -535 -288 -551 -272 -15 15 -27 179
-27 376 0 195 9 331 31 466 7 50 16 104 18 120 23 178 161 673 235 836 10 23
30 68 42 98 145 340 359 666 569 868 100 97 299 236 315 220 6 -6 6 -338 0
-393 -2 -22 -7 -65 -10 -95 -3 -30 -8 -62 -10 -70 -2 -8 -6 -33 -10 -55 -27
-186 -125 -463 -227 -639 -42 -73 -103 -169 -124 -196 -7 -8 -40 -49 -73 -90
-33 -41 -99 -115 -147 -165 -101 -106 -134 -151 -179 -248 -45 -97 -66 -205
-72 -366 -7 -180 -4 -182 152 -78 191 128 412 330 560 512 71 88 205 278 205
292 0 3 6 14 14 22 20 23 127 232 170 335 38 89 111 303 120 348 2 13 9 41 14
63 75 281 97 668 56 989 -20 155 -89 434 -128 516 -41 88 -76 81 -289 -62
-576 -384 -1003 -870 -1311 -1493 -95 -192 -172 -386 -219 -550 -26 -90 -73
-299 -83 -365 -3 -19 -7 -42 -9 -50 -2 -8 -7 -38 -10 -66 -3 -28 -7 -60 -10
-71 -2 -12 -6 -54 -10 -95 -10 -114 -14 -158 -21 -228 -7 -66 -12 -1189 -6
-1247 4 -33 4 -33 82 -18 14 3 39 8 55 11 145 26 453 119 590 179 17 7 59 25
95 41 248 107 571 302 796 481 111 89 348 319 443 430 249 293 470 675 601
1040 74 203 144 466 165 620 3 21 8 47 10 59 2 11 7 45 11 75 3 30 8 56 9 59
2 3 7 53 11 110 15 194 8 607 -12 705 -2 11 -6 43 -9 70 -10 95 -57 315 -101
465 -63 218 -150 429 -257 625 -75 137 -136 224 -168 241 -40 20 -82 15 -180
-21z"/>
<path d="M270 4660 c-35 -14 -65 -62 -95 -155 -24 -72 -86 -318 -99 -388 -3
-15 -10 -53 -15 -85 -19 -102 -34 -222 -47 -372 -5 -59 -4 -392 1 -450 13
-145 23 -231 36 -305 96 -564 325 -1095 663 -1540 249 -328 577 -620 961 -855
91 -56 338 -190 350 -190 3 0 6 220 6 357 -1 103 -61 198 -158 248 -241 124
-463 326 -783 711 -96 115 -269 389 -350 555 -106 216 -207 524 -235 719 -5
38 -16 102 -21 130 -32 176 -20 654 21 844 2 12 7 37 9 56 9 62 63 292 91 385
36 120 44 156 45 183 0 31 -42 68 -85 75 -19 3 -71 22 -116 42 -88 40 -140 50
-179 35z"/>
<path d="M935 4356 c-28 -43 -114 -349 -131 -466 -3 -25 -12 -85 -19 -135 -13
-92 -13 -429 0 -535 19 -165 26 -214 35 -260 85 -449 228 -779 479 -1115 86
-114 318 -351 436 -447 148 -118 345 -248 520 -343 170 -92 159 -59 160 -495
1 -245 5 -361 12 -376 9 -16 46 -29 175 -62 184 -48 206 -50 239 -23 l24 19 1
549 c1 607 2 604 -61 643 -19 11 -91 43 -162 71 -525 206 -907 548 -1164 1044
-179 345 -256 651 -252 1000 1 55 4 128 8 162 l7 63 26 -20 c84 -61 277 -252
416 -411 64 -72 199 -258 258 -355 109 -177 185 -343 260 -569 50 -152 76
-205 141 -284 71 -89 168 -159 322 -235 176 -88 170 -96 114 169 -119 559
-362 1080 -703 1505 -272 339 -653 672 -1022 893 -72 43 -98 46 -119 13z"/>
</g>
</svg>
