<svg xmlns="http://www.w3.org/2000/svg" viewBox="0 0 687.71 686.02"><defs><style>.cls-1{fill:#164d60;}.cls-2{fill:#819d5f;}</style></defs><g id="Layer_2" data-name="Layer 2"><g id="Layer_1-2" data-name="Layer 1"><path class="cls-1" d="M400,681.25c-.28-87.94-7.18-175,30.44-257.24,33-72.11,82.46-129,150.16-170.27,10.64-6.49,14-5.45,18,7C635.93,375,590.36,503.6,489.12,567.41c-2.32,1.46-4.47,3.87-8.83,2.18-.42-26.85.66-51.15,23.26-73.21,48-46.89,66.91-106.16,62.28-173.61-75.05,35.79-135.42,188.42-119,300.57,90.89-36.73,153.06-100,182.62-193.45,21.77-68.83,16.71-136.78-10.46-203.46-4.75-11.64-9-16.22-22.42-9.27C448.76,293.63,371.23,414.23,366.62,580.85c-.84,30.1-.5,60.25.15,90.36.24,11.16-3,14.8-14.56,14.81-30.57,0-30.95.59-30.47-29.78.82-52.59-2.79-105.27,7.42-157.56,26.27-134.52,99.66-235.31,216.58-305.31,22.8-13.65,47.15-24.15,72.06-33.53,10.13-3.81,15.35-2.42,21.14,6.78C732.7,315.54,686.82,527,539.4,625,497.29,653.05,452.15,673.13,400,681.25Z"/><path class="cls-2" d="M301,473.47c-7.36-19.87-11.29-40.07-19.08-59.06Q215.76,253.05,53,191.06c-10.21-3.91-14.45-6.87-7.67-18.08,19-31.44,41.37-59.92,68.23-85,8.54-8,16-8.55,26.27-3.17,54.35,28.41,103,64.31,145,109,8.62,9.17,12.34,12.36,22.34,0C359.09,129.63,424.2,82.51,499.86,49.63c8.84-3.83,16.12-4.27,24.34,1.16,30.09,19.88,57.88,42.19,81.37,69.87,8,9.48,4.4,11.45-4.65,14.66Q467.08,182.77,382.68,297.05a443.47,443.47,0,0,0-74.94,160C306.49,462.19,307.77,468.73,301,473.47ZM533.21,114.36c-22.71-21.14-22.61-21-46.38-8.76-74.35,38.13-133.67,92.75-178.56,163-6.92,10.84-10.25,12.38-18.59.94A460.68,460.68,0,0,0,155.14,145.7C129,129.88,137.69,128.48,115,151.34c-9.56,9.63-6.82,13.95,4.21,19.65,43,22.23,81,51.26,114.68,86.15,25.38,26.31,45.89,56.23,66.3,88.65C352.63,242.27,429.88,166,533.21,114.36Z"/><path class="cls-1" d="M279,516.19c-26.49-11.6-48.95-22.51-58.56-55C204.06,406,169.64,360.81,123.12,321.83c-4.77,37.79.93,71.79,14.57,104.43,25.88,62,70.75,104.57,134.22,126.7,10.65,3.71,14.16,8.49,13.94,19.42q-1,47.73,0,95.48c.22,10.73-3.84,13.26-13.14,10.93-8.38-2.1-16.65-4.78-25.13-6.33-7.57-1.37-6.75-6.73-6.78-11.78-.1-19.1-.48-38.21.15-57.29.33-9.93-3.16-14.51-12.37-19.34C127.84,531.25,76.15,448,76.45,333.74c.07-26,5.62-51.52,13.77-76.35,2.08-6.34,4.16-10.13,11.46-5.66,98.55,60.34,159.57,146.41,179.07,260.94C280.82,513.12,280.26,513.69,279,516.19Z"/><path class="cls-1" d="M201.74,655.64c-90-44-151.06-110.17-183-201.91C-6.36,381.59-5.57,308.84,17.06,235.87c4.55-14.68,10.77-18.45,24.1-12,4.14,2,8.34,4.57,12.75,5.21,12,1.74,10.85,8.35,8.08,17.16-39.08,124.46-9.24,230.92,84.75,320.1,10.82,10.28,22.74,20.39,35.95,26.92,16,7.88,21.59,18.37,19.24,35.25C200.82,636.49,201.74,644.7,201.74,655.64Z"/><path class="cls-1" d="M154.35,56.62C253.23-4.83,354.07-15.09,460.12,20.16c3.91,1.3,10,1.59,9.6,8.08-.35,5.32-5.9,5.1-9.16,6.53-57.83,25.48-107.7,62-151,107.79-3.13,3.32-5.26,12-13.15,4.79A493.63,493.63,0,0,0,154.35,56.62Zm101.9,2.22C269.84,68.7,281.79,77.28,293.63,86c2.48,1.83,4.88,3.39,7.6,1.07,15.26-13,30.44-26.14,47.27-40.62C315.61,44.21,286.68,48.14,256.25,58.84Z"/></g></g></svg>